<svg width="55" height="46" viewBox="0 0 55 46" fill="" xmlns="http://www.w3.org/2000/svg">
<path d="M46.082 13.857L46.4331 13.501C46.3325 13.4018 46.1947 13.3498 46.0537 13.3578C45.9128 13.3658 45.7817 13.4331 45.693 13.5429L46.082 13.857ZM26.5993 9.64853L27.0923 9.73215L26.5993 9.64853ZM12.5537 28.9206L12.1625 29.232L12.5537 28.9206ZM9.49536 21.2921L9.98507 21.1912C9.93986 20.9717 9.75411 20.8091 9.53056 20.7933C9.30701 20.7775 9.10026 20.9124 9.02466 21.1234L9.49536 21.2921ZM1 45H0.5C0.5 45.2761 0.723858 45.5 1 45.5V45ZM3.26543 45.5H54V44.5H3.26543V45.5ZM45.693 13.5429C45.0388 14.3531 44.7233 15.2647 44.5136 16.1796C44.4091 16.6353 44.3286 17.1029 44.2486 17.5602C44.1678 18.0221 44.087 18.4767 43.98 18.9298C43.7671 19.8315 43.455 20.7064 42.8612 21.534C42.2685 22.3601 41.3751 23.1666 39.962 23.8984L40.4219 24.7864C41.9538 23.9931 42.9761 23.0892 43.6737 22.117C44.3702 21.1463 44.7229 20.135 44.9532 19.1596C45.0678 18.6741 45.1532 18.1924 45.2337 17.7325C45.3149 17.268 45.3908 16.8282 45.4883 16.4031C45.6824 15.5565 45.953 14.8127 46.4711 14.1711L45.693 13.5429ZM39.962 23.8984C38.8048 24.4977 37.4939 23.9886 36.0098 22.5289C34.5524 21.0953 33.1158 18.9145 31.8216 16.6929C31.1772 15.5869 30.5736 14.4806 30.0245 13.4642C29.4773 12.4514 28.9806 11.5211 28.5568 10.7809C28.1439 10.0594 27.7656 9.45464 27.4522 9.13831C27.3703 9.05567 27.2705 8.96923 27.1547 8.90746C27.0397 8.84617 26.8568 8.78263 26.6466 8.83914C26.4296 8.89745 26.3005 9.0515 26.2308 9.17855C26.1632 9.30171 26.1277 9.43924 26.1064 9.5649L27.0923 9.73215C27.1048 9.65868 27.1159 9.64418 27.1076 9.65947C27.097 9.67866 27.0395 9.76902 26.9061 9.80487C26.7795 9.8389 26.6922 9.79414 26.6842 9.7899C26.6754 9.7852 26.6942 9.79412 26.7418 9.84219C26.9465 10.0487 27.2625 10.5326 27.689 11.2777C28.1047 12.004 28.5928 12.918 29.1447 13.9396C29.6947 14.9576 30.3047 16.0757 30.9575 17.1963C32.2575 19.4277 33.7496 21.7084 35.3086 23.2418C36.8409 24.749 38.634 25.7123 40.4219 24.7864L39.962 23.8984ZM26.1064 9.5649C24.9756 16.2303 23.1454 23.0737 20.7977 27.1916C19.6131 29.2694 18.3673 30.5265 17.1245 30.8431C15.9538 31.1413 14.5648 30.6442 12.9449 28.6092L12.1625 29.232C13.8827 31.393 15.6362 32.2541 17.3714 31.8121C19.0344 31.3885 20.4578 29.8069 21.6664 27.6869C24.1051 23.4094 25.9576 16.4207 27.0923 9.73215L26.1064 9.5649ZM12.9449 28.6092C12.0015 27.4241 11.259 25.5908 10.7481 24.0077C10.4954 23.2246 10.3041 22.5183 10.1761 22.008C10.1121 21.753 10.0641 21.5474 10.0322 21.4062C10.0162 21.3356 10.0043 21.2812 9.99644 21.2447C9.99251 21.2265 9.98959 21.2127 9.9877 21.2037C9.98675 21.1992 9.98606 21.1959 9.98562 21.1938C9.9854 21.1928 9.98525 21.192 9.98516 21.1916C9.98511 21.1914 9.98508 21.1912 9.98507 21.1912C9.98506 21.1911 9.98506 21.1911 9.98506 21.1911C9.98507 21.1911 9.98507 21.1912 9.49536 21.2921C9.00564 21.3929 9.00566 21.393 9.00568 21.3931C9.00569 21.3932 9.00572 21.3933 9.00574 21.3934C9.00579 21.3937 9.00586 21.394 9.00594 21.3944C9.00611 21.3952 9.00634 21.3963 9.00663 21.3977C9.00722 21.4006 9.00807 21.4046 9.00917 21.4099C9.01138 21.4203 9.01462 21.4356 9.01889 21.4554C9.02742 21.495 9.04007 21.5527 9.0568 21.6267C9.09026 21.7747 9.1401 21.988 9.20615 22.2513C9.33814 22.7775 9.53533 23.5059 9.79643 24.3149C10.3132 25.9161 11.0998 27.897 12.1625 29.232L12.9449 28.6092ZM1 45.5H3.26543V44.5H1V45.5ZM1.5 45V0H0.5V45H1.5ZM9.02466 21.1234L0.529307 44.8313L1.47069 45.1687L9.96605 21.4607L9.02466 21.1234ZM45.731 14.2131L53.649 22.0186L54.351 21.3065L46.4331 13.501L45.731 14.2131Z" fill="#222222"/>
</svg>
