<svg width="40" height="207" viewBox="0 0 243 207" fill="none" xmlns="http://www.w3.org/2000/svg">
<path d="M204 62.5487L207.536 59.0132C206.528 58.006 205.139 57.4762 203.717 57.5567C202.295 57.6372 200.975 58.3204 200.088 59.4349L204 62.5487ZM118 43.704L122.932 44.5287L118 43.704ZM56 130L52.0665 133.087L56 130ZM42.5 95.8411L47.4 94.8461C46.9526 92.6432 45.0902 91.0096 42.8478 90.8532C40.6053 90.6969 38.5342 92.0562 37.7855 94.1758L42.5 95.8411ZM5 202H0C0 204.761 2.23858 207 5 207L5 202ZM15 207H238.951V197H15V207ZM200.088 59.4349C196.83 63.5279 195.318 68.0679 194.351 72.3469C193.871 74.47 193.504 76.639 193.154 78.6667C192.796 80.7405 192.451 82.7027 191.999 84.6444C191.106 88.4846 189.837 92.0302 187.494 95.3426C185.163 98.6373 181.577 101.973 175.675 105.074L180.325 113.926C187.423 110.197 192.293 105.875 195.658 101.117C199.011 96.3772 200.676 91.4764 201.739 86.9113C202.265 84.6504 202.654 82.4202 203.008 80.3663C203.371 78.2662 203.693 76.3723 204.105 74.5513C204.92 70.9422 205.996 68.0703 207.912 65.6626L200.088 59.4349ZM175.675 105.074C173.837 106.039 171.988 106.124 169.772 105.313C167.374 104.437 164.6 102.506 161.523 99.436C155.369 93.2951 149.179 83.8061 143.481 73.8839C140.66 68.972 138.012 64.0505 135.59 59.5037C133.188 54.9925 130.972 50.7819 129.08 47.4293C127.295 44.2657 125.455 41.2231 123.773 39.5013C123.319 39.0357 122.653 38.4291 121.791 37.9632C120.939 37.5024 119.359 36.9018 117.466 37.4179C115.514 37.9502 114.43 39.3365 113.91 40.298C113.408 41.2274 113.186 42.177 113.068 42.8792L122.932 44.5287C122.963 44.3393 122.948 44.6081 122.706 45.0545C122.448 45.5331 121.68 46.6341 120.097 47.0658C118.573 47.4813 117.414 46.9648 117.035 46.7594C116.646 46.549 116.503 46.3695 116.62 46.4892C117.225 47.1087 118.45 48.9408 120.371 52.3438C122.185 55.558 124.315 59.6062 126.764 64.2046C129.194 68.7673 131.904 73.8062 134.809 78.8642C140.562 88.8816 147.3 99.3703 154.46 106.515C158.041 110.088 162.021 113.127 166.338 114.705C170.837 116.35 175.663 116.376 180.325 113.926L175.675 105.074ZM113.068 42.8792C108.087 72.6647 100.067 102.914 89.949 120.917C84.7772 130.12 79.7676 134.827 75.4704 135.937C71.9234 136.854 66.8216 135.691 59.9335 126.913L52.0665 133.087C59.9221 143.097 68.6922 148.017 77.9722 145.619C86.5019 143.415 93.2743 135.411 98.6666 125.817C109.676 106.227 117.913 74.5392 122.932 44.5287L113.068 42.8792ZM59.9335 126.913C56.0933 122.02 52.9344 114.215 50.6941 107.173C49.6008 103.737 48.7724 100.634 48.218 98.3915C47.9412 97.2723 47.734 96.3724 47.5972 95.7584C47.5288 95.4516 47.4781 95.2165 47.4451 95.0616C47.4287 94.9842 47.4167 94.9268 47.4092 94.8905C47.4054 94.8724 47.4027 94.8595 47.4012 94.8521C47.4004 94.8483 47.4 94.846 47.3998 94.845C47.3997 94.8445 47.3996 94.8443 47.3997 94.8445C47.3997 94.8446 47.3998 94.845 47.3998 94.8451C47.3999 94.8455 47.4 94.8461 42.5 95.8411C37.6 96.8362 37.6002 96.8369 37.6003 96.8377C37.6004 96.8381 37.6006 96.8391 37.6008 96.8399C37.6011 96.8414 37.6015 96.8434 37.6019 96.8456C37.6029 96.8502 37.6041 96.8561 37.6056 96.8635C37.6086 96.8781 37.6127 96.8982 37.618 96.9237C37.6286 96.9747 37.6438 97.0471 37.6635 97.14C37.703 97.3256 37.7607 97.593 37.8366 97.9337C37.9884 98.6148 38.2132 99.5901 38.5103 100.792C39.1036 103.191 39.9899 106.512 41.1647 110.205C43.4607 117.422 47.0517 126.696 52.0665 133.087L59.9335 126.913ZM5 207H15V197H5V207ZM10 202V0.5H0V202H10ZM37.7855 94.1758L0.285497 200.335L9.7145 203.665L47.2145 97.5065L37.7855 94.1758ZM200.464 66.0843L235.416 101.036L242.487 93.9645L207.536 59.0132L200.464 66.0843Z" fill="#f1f1f1"/>
</svg>
